<svg width="100" height="100" viewBox="0 0 37 36" fill="none" xmlns="http://www.w3.org/2000/svg">
<path d="M6.55392 3.45234C5.64689 3.62812 4.67657 4.38047 4.26173 5.23125C4.12814 5.50547 3.98048 5.89922 3.94532 6.11016C3.85392 6.61641 3.85392 13.6406 3.94532 14.1398C4.06486 14.7656 4.38829 15.3633 4.88048 15.8484C5.62579 16.5938 6.37111 16.875 7.65782 16.875H8.37501V14.0766V11.2781L8.06564 11.1937C7.07423 10.9336 6.98282 9.49219 7.93204 9.09844C8.26954 8.95078 28.7305 8.95078 29.068 9.09844C30.0172 9.49219 29.9258 10.9336 28.9344 11.1937L28.625 11.2781V14.0766V16.875H29.3211C30.2211 16.875 30.657 16.7906 31.2688 16.4883C32.1477 16.0594 32.8719 15.1102 33.0547 14.1398C33.1461 13.6336 33.1461 6.61641 33.0547 6.11016C32.8719 5.13984 32.1477 4.19062 31.2688 3.76172C30.9945 3.62812 30.6008 3.48047 30.3899 3.44531C29.9188 3.36094 7.00392 3.36094 6.55392 3.45234Z" fill="#007373"/>
<path d="M10.625 20.3836C10.625 26.2969 10.6531 29.6438 10.6953 29.8898C10.8711 30.8109 11.6164 31.8164 12.4391 32.2313C13.2055 32.618 13.2758 32.625 18.4719 32.625C21.3687 32.625 23.4148 32.5969 23.6398 32.5547C24.9195 32.3156 26.0586 31.1766 26.3047 29.8898C26.3469 29.6438 26.375 26.2969 26.375 20.3836V11.25H18.5H10.625V20.3836ZM19.1187 15.9398C19.2172 16.0102 19.3648 16.1648 19.4422 16.2703C19.5828 16.4531 19.5898 16.5586 19.6109 19.2445L19.632 22.0289L20.4969 21.1781C21.2773 20.4117 21.3898 20.3273 21.6781 20.2852C22.2969 20.1938 22.8523 20.5945 22.9719 21.2203C23.0703 21.7195 22.9016 21.9305 20.9117 23.9203C18.8797 25.9453 18.8586 25.9523 18.2328 25.8398C18.0078 25.8047 17.7055 25.5305 16.025 23.85C13.9227 21.7477 13.9156 21.7336 14.0352 21.1148C14.0984 20.7703 14.5203 20.3484 14.8648 20.2852C15.4203 20.1797 15.5891 20.2711 16.5172 21.1852L17.375 22.0359V19.357C17.375 17.6273 17.4031 16.6008 17.4523 16.4742C17.5508 16.2141 17.7828 15.968 18.043 15.8484C18.3242 15.7148 18.8797 15.7641 19.1187 15.9398Z" fill="#007373"/>
</svg>