<svg width="145" height="28" viewBox="0 0 145 28" fill="none" xmlns="http://www.w3.org/2000/svg">
<g clip-path="url(#clip0_62_1896)">
<path d="M8.22717 13.8477L0 13.749L4.7913 1.57082C5.17219 0.608512 6.2308 -0.0275399 7.40498 -0.000123894L14.0587 0.164372L8.22717 13.8477Z" fill="white"/>
<path d="M25.2174 14.1221L16.9902 14.0234L21.7789 1.84516C22.1572 0.882853 23.2184 0.244059 24.3926 0.274217L31.0463 0.435972L25.2174 14.1221Z" fill="white"/>
<path d="M26.1972 27.9973L19.864 27.9232L25.2936 14.1248L33.9226 14.3359L28.7478 26.4812C28.3538 27.4161 27.332 28.011 26.1972 27.9973Z" fill="white"/>
<path d="M9.23059 27.6436L2.88947 27.5696L8.32697 13.7711L16.956 13.9822L11.7812 26.1275C11.3898 27.0514 10.3654 27.6573 9.23059 27.6436Z" fill="white"/>
<path d="M42.2917 3.24612H53.9521C55.6366 3.20785 57.3152 3.4674 58.9168 4.01377C60.1898 4.45176 61.3598 5.16555 62.35 6.10836C63.2339 6.97057 63.9145 8.03468 64.3385 9.21734C64.7735 10.4456 64.9907 11.7462 64.9795 13.0556V15.4079C64.9818 16.6872 64.7712 17.9571 64.3569 19.1611C63.9519 20.338 63.2889 21.3999 62.4209 22.2619C61.439 23.2136 60.2752 23.9377 59.0061 24.3866C57.3739 24.9514 55.6607 25.2185 53.9416 25.1762H42.2917V3.24612ZM47.0462 21.4504H53.587C54.4888 21.4614 55.3868 21.3244 56.2479 21.0446C57.0147 20.7977 57.7235 20.3859 58.3284 19.8356C58.9191 19.2843 59.3817 18.5999 59.6812 17.8342C60.0154 16.9518 60.1762 16.0083 60.154 15.0597V13.2338C60.1605 12.4003 60.0217 11.5726 59.7442 10.791C59.4775 10.0438 59.0591 9.36575 58.5175 8.80335C57.9347 8.21414 57.2391 7.76009 56.4765 7.47093C55.5489 7.13007 54.5702 6.96571 53.587 6.98567H47.0383L47.0462 21.4504Z" fill="white"/>
<path d="M68.4573 25.1762V11.0734C68.4573 10.7951 68.5099 10.5195 68.6119 10.2624C68.714 10.0052 68.8635 9.77161 69.0521 9.57482C69.2406 9.37803 69.4645 9.22192 69.7108 9.11542C69.9572 9.00892 70.2212 8.9541 70.4879 8.9541H73.1147V25.1762H68.4573Z" fill="white"/>
<path d="M77.7667 25.1762V11.0734C77.7674 10.5116 77.9816 9.97297 78.3622 9.57569C78.7429 9.17841 79.2589 8.9549 79.7973 8.95417H82.4031V12.3373C82.7165 11.7359 83.118 11.1892 83.593 10.717C84.0728 10.2395 84.6149 9.83525 85.2032 9.5162C85.8199 9.18499 86.4738 8.9354 87.1497 8.77323C87.8761 8.60034 88.6191 8.51479 89.3641 8.51826C90.387 8.49946 91.4078 8.6202 92.4007 8.87741C93.1582 9.07563 93.879 9.40358 94.5337 9.84793C95.0828 10.2289 95.5557 10.7177 95.9259 11.2873C96.274 11.8327 96.5455 12.4272 96.7323 13.0529C96.9177 13.6858 97.0392 14.3373 97.0948 14.9967C97.1526 15.6684 97.1815 16.3236 97.1815 16.9679V25.1927H92.5452V17.0309C92.5497 16.3386 92.4854 15.6477 92.3534 14.9693C92.2434 14.368 92.0124 13.798 91.6757 13.2969C91.3273 12.8034 90.8596 12.4155 90.3203 12.1728C89.6259 11.8766 88.8792 11.7374 88.1295 11.7643C87.3145 11.7526 86.5071 11.9296 85.7654 12.2825C84.4225 12.9151 83.3663 14.0656 82.8181 15.4929C82.5561 16.1556 82.4196 16.8651 82.4162 17.582V25.1762H77.7667Z" fill="white"/>
<path d="M114.758 25.1762V22.2537C114.531 22.764 114.207 23.221 113.807 23.5971C113.364 24.0281 112.864 24.3909 112.322 24.6745C111.726 24.9827 111.096 25.2156 110.447 25.3681C109.748 25.5368 109.032 25.6205 108.314 25.6176C107.403 25.6254 106.493 25.54 105.598 25.3627C104.908 25.2299 104.235 25.0099 103.596 24.7074C103.09 24.4679 102.625 24.1448 102.217 23.7506C101.878 23.4133 101.588 23.0253 101.358 22.5991C101.154 22.2127 101.005 21.797 100.917 21.3654C100.835 20.9689 100.793 20.5647 100.791 20.1591C100.788 19.4864 100.911 18.8195 101.153 18.1961C101.419 17.5396 101.852 16.971 102.404 16.5511C103.115 16.0228 103.918 15.6438 104.768 15.4353C105.993 15.1313 107.251 14.9921 108.511 15.0213C109.171 15.0195 109.831 15.0635 110.486 15.1529C111.113 15.2407 111.698 15.3458 112.241 15.4682C112.785 15.5943 113.268 15.7232 113.694 15.863C114.119 16.0028 114.482 16.1372 114.744 16.2331V15.6108C114.748 15.0805 114.684 14.5521 114.553 14.0398C114.432 13.562 114.19 13.1266 113.854 12.7787C113.459 12.3958 112.984 12.1142 112.467 11.9562C111.732 11.732 110.968 11.6293 110.203 11.6519C109.508 11.635 108.815 11.7143 108.141 11.8877C107.68 12.0088 107.243 12.2109 106.848 12.4853C106.552 12.6954 106.31 12.9778 106.142 13.3078C106.01 13.5826 105.915 13.8751 105.861 14.1769H101.447C101.507 13.7714 101.595 13.371 101.71 12.9788C101.84 12.5297 102.032 12.1023 102.278 11.7095C102.562 11.2589 102.904 10.8511 103.294 10.4977C103.772 10.0725 104.311 9.72836 104.891 9.47781C105.636 9.15253 106.415 8.91617 107.211 8.77322C108.264 8.58114 109.331 8.48938 110.4 8.49906C111.508 8.48343 112.615 8.59003 113.702 8.81708C114.537 8.99641 115.345 9.29243 116.105 9.69714C116.723 10.0247 117.278 10.469 117.742 11.0076C118.156 11.4983 118.494 12.0533 118.745 12.6526C118.994 13.2421 119.166 13.8635 119.257 14.5004C119.349 15.1467 119.396 15.7991 119.396 16.4524V23.057C119.396 23.619 119.183 24.1581 118.802 24.5555C118.421 24.953 117.904 25.1762 117.366 25.1762H114.758ZM109.662 22.462C110.429 22.4817 111.194 22.3554 111.918 22.0892C112.473 21.8821 112.992 21.5841 113.457 21.2064C113.816 20.9142 114.125 20.56 114.369 20.1591C114.535 19.8937 114.666 19.606 114.758 19.3037V18.7938C114.547 18.6951 114.248 18.5745 113.859 18.4374C113.47 18.3003 113.032 18.1632 112.546 18.0426C112.06 17.9219 111.529 17.815 110.97 17.7273C110.434 17.6408 109.893 17.5968 109.352 17.5957C108.648 17.5735 107.946 17.6575 107.266 17.8452C106.836 17.9627 106.434 18.1707 106.084 18.4566C105.843 18.658 105.661 18.9258 105.558 19.2297C105.384 19.7153 105.391 20.2513 105.577 20.7321C105.699 21.0576 105.904 21.342 106.17 21.5546C106.554 21.8576 106.99 22.0793 107.455 22.2071C108.175 22.401 108.918 22.4868 109.662 22.462Z" fill="white"/>
<path d="M123.817 25.1762V11.0734C123.817 10.7951 123.87 10.5195 123.972 10.2624C124.074 10.0053 124.224 9.77167 124.412 9.57488C124.601 9.37808 124.825 9.22198 125.071 9.11548C125.317 9.00898 125.581 8.95416 125.848 8.95416H128.451V12.6608C128.648 12.1123 128.912 11.5933 129.239 11.1173C129.586 10.6019 130.017 10.1545 130.513 9.79583C131.087 9.38286 131.72 9.06818 132.389 8.86369C133.226 8.61515 134.093 8.4969 134.963 8.51276C135.226 8.51276 135.473 8.51276 135.677 8.52647C135.882 8.54018 136.061 8.5484 136.224 8.56759C136.387 8.58678 136.539 8.60597 136.681 8.63065C136.823 8.65532 136.962 8.68274 137.104 8.71838L137.064 12.2825C136.762 12.2167 136.408 12.1564 135.993 12.1015C135.462 12.0402 134.929 12.0128 134.396 12.0193C133.476 11.9943 132.562 12.165 131.708 12.521C131.017 12.8219 130.392 13.2659 129.87 13.826C129.402 14.3385 129.044 14.9487 128.819 15.6163C128.589 16.2445 128.464 16.9095 128.451 17.582V25.1762H123.817Z" fill="white"/>
<path d="M139.928 25.1762V11.0734C139.928 10.5115 140.142 9.9729 140.523 9.57562C140.904 9.17834 141.42 8.95483 141.958 8.9541H144.585V25.1762H139.928Z" fill="white"/>
<path d="M67.995 5.02539C67.9927 4.75932 68.0446 4.49577 68.1474 4.25226C68.2563 4.00366 68.4245 3.78842 68.636 3.62718C68.8942 3.42991 69.1855 3.28485 69.4949 3.19949C69.9059 3.08453 70.3304 3.03099 70.7558 3.04047C71.1855 3.03054 71.6144 3.08408 72.0298 3.19949C72.3387 3.28627 72.6298 3.43121 72.8888 3.62718C73.1011 3.79097 73.2693 4.00908 73.3774 4.26049C73.4779 4.50185 73.5297 4.76222 73.5297 5.02539V5.06652C73.5305 5.3342 73.4786 5.5992 73.3774 5.84513C73.2698 6.09533 73.1014 6.31178 72.8888 6.47296C72.6291 6.6645 72.3379 6.80481 72.0298 6.88694C71.6135 6.99652 71.185 7.04723 70.7558 7.03773C70.3309 7.04683 69.9068 6.99611 69.4949 6.88694C69.1851 6.80566 68.8934 6.66226 68.636 6.46474C68.4245 6.30349 68.2563 6.08825 68.1474 5.83965C68.0436 5.59166 67.9916 5.32341 67.995 5.05281V5.02539Z" fill="white"/>
<path d="M139.465 5.02539C139.464 4.75945 139.516 4.49617 139.618 4.25226C139.727 4.00424 139.895 3.78921 140.106 3.62718C140.365 3.43121 140.656 3.28627 140.965 3.19949C141.376 3.08453 141.801 3.03099 142.226 3.04047C142.656 3.03054 143.085 3.08408 143.5 3.19949C143.809 3.28485 144.101 3.42991 144.359 3.62718C144.573 3.78939 144.741 4.00795 144.848 4.26049C144.949 4.50154 145.001 4.76211 145 5.02539V5.06652C145.002 5.33431 144.95 5.59953 144.848 5.84513C144.742 6.09644 144.573 6.31332 144.359 6.47296C144.1 6.66554 143.809 6.80594 143.5 6.88694C143.084 6.99652 142.655 7.04723 142.226 7.03773C141.801 7.04683 141.377 6.99611 140.965 6.88694C140.656 6.80456 140.364 6.66125 140.106 6.46474C139.895 6.3027 139.727 6.08767 139.618 5.83965C139.515 5.59124 139.463 5.32328 139.465 5.05281V5.02539Z" fill="white"/>
</g>
<defs>
<clipPath id="clip0_62_1896">
<rect width="145" height="28" fill="white"/>
</clipPath>
</defs>
</svg>
